<svg xmlns="http://www.w3.org/2000/svg" viewBox="0 0 18.0778 22.0926"><defs><style>.cls-1{fill:#3d4040;}</style></defs><title>contrasena</title><g id="Capa_2" data-name="Capa 2"><g id="Capa_1-2" data-name="Capa 1"><path class="cls-1" d="M16.9431,22.0926H1.1347A1.8209,1.8209,0,0,1,0,20.1486c.0357-2.6822.0126-5.3651.0127-8.0478,0-1.5572.3284-1.9188,1.8776-2.0713a.588.588,0,0,0,.1253-.0564c0-.9606-.0041-1.94.0007-2.9184A7.0576,7.0576,0,0,1,7.6436.1415c.22-.0463.4392-.0943.6589-.1415H9.7753c.22.0472.4391.0952.6589.1415A7.0574,7.0574,0,0,1,16.061,7.0546c.0049.9789.0008,1.9579.0008,2.9327a1.1281,1.1281,0,0,0,.1736.0487c1.439.1143,1.829.5324,1.8292,1.9667,0,2.7154-.0227,5.4311.0128,8.146A1.8211,1.8211,0,0,1,16.9431,22.0926ZM13.0274,10.0191c0-1.1623.067-2.3064-.0154-3.44A3.945,3.945,0,0,0,9.62,3.0486,3.9921,3.9921,0,0,0,5.2338,5.7335c-.44,1.4-.1486,2.8424-.2327,4.2856Z"/></g></g></svg>