<svg xmlns="http://www.w3.org/2000/svg" viewBox="0 0 23.2859 16.0126"><defs><style>.cls-1{fill:#3d4040;}</style></defs><title>correo</title><g id="Capa_2" data-name="Capa 2"><g id="Capa_1-2" data-name="Capa 1"><path class="cls-1" d="M11.5722.003q3.0817,0,6.1634,0,1.9932,0,3.9862-.0028a1.5155,1.5155,0,0,1,1.4915,1.0229.1975.1975,0,0,1-.082.2712c-.8778.62-1.7487,1.25-2.6248,1.8717C19.04,4.2075,17.5749,5.2519,16.1012,6.2837c-.9395.6578-1.8835,1.31-2.844,1.9365a3.0308,3.0308,0,0,1-2.58.2747,4.8042,4.8042,0,0,1-1.399-.7829q-2.2635-1.55-4.51-3.1252C3.33,3.5778,1.9035,2.5531.4721,1.5353.354,1.4514.2391,1.3625.1164,1.2859A.16.16,0,0,1,.048,1.0717,1.4769,1.4769,0,0,1,1.441.0223C2.2325.0133,3.0242.0193,3.8158.0162,4.7035.0126,5.5912.0026,6.4789.0014Q9.0255-.0023,11.5722.0006Z"/><path class="cls-1" d="M11.7023,16.0079q-2.8737,0-5.7473,0-2.2111.0009-4.4222.0045A1.5169,1.5169,0,0,1,.0667,14.9783a.1866.1866,0,0,1,.079-.2558c.8578-.6069,1.71-1.2212,2.5673-1.8293q2.2234-1.5776,4.45-3.15c.419-.2961.8445-.5832,1.26-.8841.1234-.0894.205-.0368.3076.0252a9.0127,9.0127,0,0,0,1.2009.7,4.3839,4.3839,0,0,0,3.5207-.0105,7.0765,7.0765,0,0,0,1.078-.6611.2915.2915,0,0,1,.3952.0023c1.1591.8184,2.3286,1.622,3.49,2.4379,1.0869.7639,2.1674,1.5368,3.25,2.3063.4921.35.9815.7034,1.4764,1.0491a.1947.1947,0,0,1,.0784.2725,1.4738,1.4738,0,0,1-1.4582,1.0094q-1.84.0027-3.68.0031-3.19.0006-6.38,0Z"/><path class="cls-1" d="M7.3929,8.0036,0,13.2391V2.7913Z"/><path class="cls-1" d="M15.8908,8.01l7.3951-5.2376v10.45Z"/></g></g></svg>