<svg xmlns="http://www.w3.org/2000/svg" viewBox="0 0 18.7498 15"><defs><style>.cls-1{fill:#3d4040;}</style></defs><title>ocultar</title><g id="Capa_2" data-name="Capa 2"><g id="Capa_1-2" data-name="Capa 1"><path class="cls-1" d="M9.3748,11.7187a4.2029,4.2029,0,0,1-4.1864-3.9L2.1152,5.444A9.7606,9.7606,0,0,0,1.0394,7.0726a.9477.9477,0,0,0,0,.8551,9.3964,9.3964,0,0,0,8.3354,5.1972,9.1023,9.1023,0,0,0,2.2819-.3064l-1.52-1.1763A4.2243,4.2243,0,0,1,9.3748,11.7187Zm9.1939,1.7021L15.33,10.9177a9.7037,9.7037,0,0,0,2.38-2.99.9477.9477,0,0,0,0-.8551A9.3965,9.3965,0,0,0,9.3748,1.8751,9.0265,9.0265,0,0,0,5.0589,2.98L1.3318.0988A.4687.4687,0,0,0,.674.1809l0,0-.5751.74a.4687.4687,0,0,0,.0823.6577l17.2369,13.322a.4687.4687,0,0,0,.6578-.0821l0,0,.5754-.74A.4688.4688,0,0,0,18.5687,13.4208Zm-5.3824-4.16-1.1513-.89A2.7759,2.7759,0,0,0,8.6333,4.7986a1.3955,1.3955,0,0,1,.2728.8264,1.3694,1.3694,0,0,1-.0451.293L6.7045,4.2513a4.169,4.169,0,0,1,2.67-.97,4.2163,4.2163,0,0,1,4.2187,4.214V7.5a4.1191,4.1191,0,0,1-.4072,1.761Z"/></g></g></svg>