<svg xmlns="http://www.w3.org/2000/svg" viewBox="0 0 20 15"><defs><style>.cls-1{fill:#f9f9f9;}</style></defs><title>correo</title><g id="Capa_2" data-name="Capa 2"><g id="Capa_1-2" data-name="Capa 1"><path class="cls-1" d="M20,5.1331V13.12A1.8778,1.8778,0,0,1,18.12,15H1.88A1.8784,1.8784,0,0,1,0,13.12V5.1331a.2312.2312,0,0,1,.3737-.1865c.88.68,2.04,1.5466,6.0267,4.44.8268.6,2.2135,1.8669,3.6,1.8669,1.4,0,2.8138-1.2933,3.6-1.8669,3.9869-2.8932,5.1464-3.76,6.0267-4.44A.2308.2308,0,0,1,20,5.1331Z"/><path class="cls-1" d="M20,1.8665v.7468a.9159.9159,0,0,1-.3594.7334c-1.2.9466-1.5872,1.2666-6.7734,5.0267-.6537.48-1.96,1.64-2.8672,1.6266-.9062.0133-2.2129-1.1468-2.8665-1.6266C1.9473,4.6133,1.5605,4.28.3607,3.3467A.9153.9153,0,0,1,0,2.6133V1.8665A1.8752,1.8752,0,0,1,1.88,0H18.12A1.8746,1.8746,0,0,1,20,1.8665Z"/></g></g></svg>