<svg xmlns="http://www.w3.org/2000/svg" viewBox="0 0 20 20"><defs><style>.cls-1{fill:#f9f9f9;}</style></defs><title>sitioweb</title><g id="Capa_2" data-name="Capa 2"><g id="Capa_1-2" data-name="Capa 1"><path class="cls-1" d="M19.2272,13.8669a10.0411,10.0411,0,0,1-6.3737,5.72,13.5639,13.5639,0,0,0,2.0137-5.72Z"/><path class="cls-1" d="M7.1471,19.5866a10.0724,10.0724,0,0,1-6.3737-5.72h4.36A13.7449,13.7449,0,0,0,7.1471,19.5866Z"/><path class="cls-1" d="M13.5736,13.8669C12.987,17.4668,11.6,20,10,20s-2.9863-2.5332-3.5729-6.1331Z"/><path class="cls-1" d="M7.1471.4134a13.5686,13.5686,0,0,0-2.0136,5.72H.7734A10.0719,10.0719,0,0,1,7.1471.4134Z"/><path class="cls-1" d="M4.8405,10c0,.8669.0534,1.7334.1335,2.5866H.347A10.3376,10.3376,0,0,1,0,10,10.3394,10.3394,0,0,1,.347,7.4134H4.974C4.8939,8.2669,4.8405,9.1335,4.8405,10Z"/><path class="cls-1" d="M13.8672,10c0,.8932-.0534,1.76-.1335,2.5866H6.2669A23.2039,23.2039,0,0,1,6.1335,10a23.2076,23.2076,0,0,1,.1334-2.5866h7.4668C13.8138,8.24,13.8672,9.1068,13.8672,10Z"/><path class="cls-1" d="M20,10a10.3327,10.3327,0,0,1-.3464,2.5866H15.0273A23.8864,23.8864,0,0,0,15.16,10a23.8956,23.8956,0,0,0-.1329-2.5866h4.6263A10.3346,10.3346,0,0,1,20,10Z"/><path class="cls-1" d="M19.2272,6.1335h-4.36a13.5673,13.5673,0,0,0-2.0137-5.72A10.0717,10.0717,0,0,1,19.2272,6.1335Z"/><path class="cls-1" d="M13.5736,6.1335H6.4271C7.0137,2.5335,8.4,0,10,0S12.987,2.5335,13.5736,6.1335Z"/></g></g></svg>