<svg xmlns="http://www.w3.org/2000/svg" viewBox="0 0 19.9995 20"><defs><style>.cls-1{fill:#f9f9f9;}</style></defs><title>telefono</title><g id="Capa_2" data-name="Capa 2"><g id="Capa_1-2" data-name="Capa 1"><path class="cls-1" d="M19.9744,15.2134,19.0408,19.28a.9443.9443,0,0,1-.92.72A18.1218,18.1218,0,0,1,0,1.88.9312.9312,0,0,1,.72.96L4.7872.0262a.9381.9381,0,0,1,1.08.5469L7.7339,4.9462A.9313.9313,0,0,1,7.467,6.04L5.1069,7.973a14.3641,14.3641,0,0,0,6.9207,6.92l1.933-2.36a.9317.9317,0,0,1,1.0932-.28l4.3738,1.88A.9534.9534,0,0,1,19.9744,15.2134Z"/></g></g></svg>