<svg xmlns="http://www.w3.org/2000/svg" viewBox="0 0 17.5 20"><defs><style>.cls-1{fill:#fff;}</style></defs><title>encargados</title><g id="Capa_2" data-name="Capa 2"><g id="Capa_1-2" data-name="Capa 1"><path class="cls-1" d="M8.75,10a5,5,0,1,0-5-5A5,5,0,0,0,8.75,10Zm3.7422,1.2734L10.625,18.75l-1.25-5.3125,1.25-2.1875H6.875l1.25,2.1875L6.875,18.75,5.0078,11.2734A5.2409,5.2409,0,0,0,0,16.5v1.625A1.8754,1.8754,0,0,0,1.875,20h13.75A1.8754,1.8754,0,0,0,17.5,18.125V16.5a5.2409,5.2409,0,0,0-5.0078-5.2266Z"/></g></g></svg>