<svg xmlns="http://www.w3.org/2000/svg" viewBox="0 0 24.0537 20"><defs><style>.cls-1{fill:#fff;}</style></defs><title>supermercado</title><g id="Capa_2" data-name="Capa 2"><g id="Capa_1-2" data-name="Capa 1"><path class="cls-1" d="M22.04,18.7337A1.28,1.28,0,0,1,20.7731,20H3.2623A1.2425,1.2425,0,0,1,2.04,18.7337V11.0449a2.8755,2.8755,0,0,0,.6223.1335,3.8435,3.8435,0,0,0,.7113.0662,5.1915,5.1915,0,0,0,1.155-.178V15h15V11.0666a5.2121,5.2121,0,0,0,1.1339.178,3.5084,3.5084,0,0,0,.7107-.0662,3.2856,3.2856,0,0,0,.6668-.1335Z"/><path class="cls-1" d="M21.218,9.9338A4.8631,4.8631,0,0,1,20.6624,10a3.9411,3.9411,0,0,1-2.889-1.3325A3.75,3.75,0,0,1,14.9067,10a3.8684,3.8684,0,0,1-2.889-1.3325,3.7734,3.7734,0,0,1-5.7552,0A3.87,3.87,0,0,1,3.3735,10,3.9559,3.9559,0,0,1,2.84,9.9338,3.4539,3.4539,0,0,1,.5512,4.6224L3.0621.5556A1.3478,1.3478,0,0,1,4.1287,0h15.8a1.2743,1.2743,0,0,1,1.0444.5556l2.5331,4.0668A3.4631,3.4631,0,0,1,21.218,9.9338Z"/></g></g></svg>