<svg xmlns="http://www.w3.org/2000/svg" viewBox="0 0 26.2443 20"><defs><style>.cls-1{fill:#fff;}</style></defs><title>b_logout</title><g id="Capa_2" data-name="Capa 2"><g id="Capa_1-2" data-name="Capa 1"><path class="cls-1" d="M25.8811,10.8847l-8.7485,8.7486a1.2519,1.2519,0,0,1-2.1351-.8853V13.7488H7.9154a1.2468,1.2468,0,0,1-1.25-1.25V7.5a1.2468,1.2468,0,0,1,1.25-1.25h7.0821V1.2509A1.2526,1.2526,0,0,1,17.1326.3656l8.7485,8.7486A1.26,1.26,0,0,1,25.8811,10.8847ZM9.9983,19.3729V17.29a.6267.6267,0,0,0-.6249-.6249H4.9992a1.6646,1.6646,0,0,1-1.6664-1.6664V5A1.6646,1.6646,0,0,1,4.9992,3.3339H9.3734a.6267.6267,0,0,0,.6249-.6249V.626A.6267.6267,0,0,0,9.3734.0011H4.9992A5,5,0,0,0,0,5v9.9983a5,5,0,0,0,4.9992,4.9992H9.3734A.6267.6267,0,0,0,9.9983,19.3729Z"/></g></g></svg>