<svg xmlns="http://www.w3.org/2000/svg" viewBox="0 0 200 50"><defs><style>.cls-1{fill:none;}.cls-2{fill:#333;}.cls-3{fill:#e6501e;}.cls-4{fill:#2d353c;}.cls-5{fill:#05a;}</style></defs><title>logo</title><g id="Capa_2" data-name="Capa 2"><g id="Capa_1-2" data-name="Capa 1"><rect class="cls-1" width="200" height="50"/><path class="cls-2" d="M56.5715,28.0782a3.5269,3.5269,0,0,1-1.4182-2.7949H58.64a1.3006,1.3006,0,0,0,.367.9013,1.328,1.328,0,0,0,1.56.0585.7473.7473,0,0,0,.2918-.6258.8848.8848,0,0,0-.484-.8006,8.4724,8.4724,0,0,0-1.5681-.6339,14.2,14.2,0,0,1-1.86-.7428,3.5716,3.5716,0,0,1-1.2345-1.0509,2.9153,2.9153,0,0,1-.5255-1.8107,3.2984,3.2984,0,0,1,.5673-1.9433,3.5152,3.5152,0,0,1,1.5682-1.2264,5.8593,5.8593,0,0,1,2.2691-.4169,5.1793,5.1793,0,0,1,3.2782.959,3.4518,3.4518,0,0,1,1.31,2.695H60.6254a1.05,1.05,0,0,0-.3251-.8013,1.1693,1.1693,0,0,0-.7924-.2666.8476.8476,0,0,0-.6006.217.8.8,0,0,0-.2337.6169.76.76,0,0,0,.2585.5754,2.3675,2.3675,0,0,0,.6425.4177q.3833.1743,1.1345.4421a13.884,13.884,0,0,1,1.8433.7591,3.7659,3.7659,0,0,1,1.2512,1.0509,2.7,2.7,0,0,1,.5258,1.71,3.4613,3.4613,0,0,1-.5258,1.8855A3.6048,3.6048,0,0,1,62.2854,28.57a5.2909,5.2909,0,0,1-2.3439.4844A5.5162,5.5162,0,0,1,56.5715,28.0782Z"/><path class="cls-2" d="M76.6752,19.5779v9.3594H73.3885V27.6028a3.0758,3.0758,0,0,1-1.1512,1.0257,3.5212,3.5212,0,0,1-1.6848.3925,3.25,3.25,0,0,1-2.5776-1.0761,4.2889,4.2889,0,0,1-.9427-2.9282V19.5779h3.2533V24.6a1.78,1.78,0,0,0,.4255,1.26,1.6225,1.6225,0,0,0,2.2606,0,1.8043,1.8043,0,0,0,.4169-1.26V19.5779Z"/><path class="cls-2" d="M84.15,19.8445a3.389,3.389,0,0,1,1.6514-.3836,3.6726,3.6726,0,0,1,2.0274.5843,3.9939,3.9939,0,0,1,1.4345,1.6678,5.7529,5.7529,0,0,1,.5258,2.5364,5.8025,5.8025,0,0,1-.5258,2.5439A3.984,3.984,0,0,1,87.8283,28.47a3.6734,3.6734,0,0,1-2.0274.5843,3.3419,3.3419,0,0,1-1.6433-.3836,2.92,2.92,0,0,1-1.0927-1.0346v5.7728h-3.27V19.5779h3.27v1.3012A2.7785,2.7785,0,0,1,84.15,19.8445Zm1.8266,2.9778a1.6821,1.6821,0,0,0-2.4191.0089,1.9726,1.9726,0,0,0-.4921,1.4182,1.9956,1.9956,0,0,0,.4921,1.4345,1.6647,1.6647,0,0,0,2.4191-.0081,2.0033,2.0033,0,0,0,.4925-1.4264A1.97,1.97,0,0,0,85.9761,22.8223Z"/><path class="cls-2" d="M101.2834,24.9167h-6.19a1.72,1.72,0,0,0,.4255,1.1427,1.2988,1.2988,0,0,0,.9594.3755,1.2023,1.2023,0,0,0,1.1679-.7339h3.4866a4.0724,4.0724,0,0,1-.8424,1.7262A4.3349,4.3349,0,0,1,98.714,28.62a4.9987,4.9987,0,0,1-2.1021.434,5.0735,5.0735,0,0,1-2.4606-.5843,4.1863,4.1863,0,0,1-1.6852-1.6685,5.1258,5.1258,0,0,1-.6091-2.5521,5.1412,5.1412,0,0,1,.6006-2.5446,4.15,4.15,0,0,1,1.6767-1.66,5.5658,5.5658,0,0,1,4.93-.0171,4.09,4.09,0,0,1,1.6681,1.6271,4.9718,4.9718,0,0,1,.6006,2.4935A5.9313,5.9313,0,0,1,101.2834,24.9167Zm-3.2866-1.5848a1.1736,1.1736,0,0,0-.4-.9428,1.4872,1.4872,0,0,0-1.0013-.3421,1.4686,1.4686,0,0,0-.9842.3251,1.5831,1.5831,0,0,0-.5006.96Z"/><path class="cls-2" d="M108.524,19.9615a3.238,3.238,0,0,1,1.6849-.4673v3.4874h-.9176a2.497,2.497,0,0,0-1.5849.4169,1.7683,1.7683,0,0,0-.5172,1.4515v4.0873h-3.27V19.5779h3.27v1.6515A4.2531,4.2531,0,0,1,108.524,19.9615Z"/><path class="cls-2" d="M129.0885,17.0361V29.0882h-3.3507v-6.65l-2.2735,6.65h-2.8036l-2.291-6.7015v6.7015H115.019V17.0361h4.0515l3.0259,7.83,2.9577-7.83Z"/><path class="cls-2" d="M141.3971,24.9684h-6.3425a1.7635,1.7635,0,0,0,.436,1.1709,1.3308,1.3308,0,0,0,.9831.3847,1.2319,1.2319,0,0,0,1.1967-.752h3.5727a4.1733,4.1733,0,0,1-.8632,1.7689,4.4432,4.4432,0,0,1-1.6156,1.2225,5.1232,5.1232,0,0,1-2.154.4447,5.1973,5.1973,0,0,1-2.5213-.5988,4.2894,4.2894,0,0,1-1.7268-1.71,5.2517,5.2517,0,0,1-.6241-2.615,5.2677,5.2677,0,0,1,.6154-2.6074,4.2529,4.2529,0,0,1,1.718-1.7006,5.7029,5.7029,0,0,1,5.0521-.0174,4.1884,4.1884,0,0,1,1.7093,1.6672,5.0944,5.0944,0,0,1,.6154,2.555A6.0815,6.0815,0,0,1,141.3971,24.9684Zm-3.3678-1.624a1.2027,1.2027,0,0,0-.41-.966,1.5243,1.5243,0,0,0-1.026-.3506,1.5051,1.5051,0,0,0-1.0085.3331,1.6229,1.6229,0,0,0-.513.9835Z"/><path class="cls-2" d="M148.8168,19.8909a3.3187,3.3187,0,0,1,1.7264-.4789v3.5735h-.94a2.559,2.559,0,0,0-1.624.4272,1.8121,1.8121,0,0,0-.53,1.4874v4.1881h-3.3507v-9.59h3.3507V21.19A4.36,4.36,0,0,1,148.8168,19.8909Z"/><path class="cls-2" d="M153.09,21.6856a4.24,4.24,0,0,1,1.7181-1.709,5.2007,5.2007,0,0,1,2.5216-.5987,4.7626,4.7626,0,0,1,3.0772,1,4.5939,4.5939,0,0,1,1.6072,2.7948h-3.556a1.1913,1.1913,0,0,0-1.1967-.94,1.1606,1.1606,0,0,0-1,.5213,2.6509,2.6509,0,0,0-.3673,1.5306,2.6875,2.6875,0,0,0,.3673,1.5382,1.1548,1.1548,0,0,0,1,.5305,1.1735,1.1735,0,0,0,1.1967-.941h3.556A4.62,4.62,0,0,1,160.4072,28.2a4.7387,4.7387,0,0,1-3.0772,1.0085,5.2,5.2,0,0,1-2.5216-.5988A4.2372,4.2372,0,0,1,153.09,26.9a5.3137,5.3137,0,0,1-.6154-2.615A5.2816,5.2816,0,0,1,153.09,21.6856Z"/><path class="cls-2" d="M164.6727,21.6856a4.09,4.09,0,0,1,1.47-1.709,3.7622,3.7622,0,0,1,2.0774-.5987,3.5119,3.5119,0,0,1,1.7093.3931,2.8468,2.8468,0,0,1,1.1113,1.06V19.4978h3.3507v9.59h-3.3507V27.7549a2.8347,2.8347,0,0,1-1.12,1.06,3.5246,3.5246,0,0,1-1.7009.3931,3.7614,3.7614,0,0,1-2.0774-.5988,4.0793,4.0793,0,0,1-1.47-1.718,5.9452,5.9452,0,0,1-.5388-2.6067A5.8943,5.8943,0,0,1,164.6727,21.6856Zm5.8637,1.1458a1.7339,1.7339,0,0,0-2.4876-.0091,2.04,2.04,0,0,0-.4955,1.4623,2.0743,2.0743,0,0,0,.4955,1.4616,1.6239,1.6239,0,0,0,1.248.538,1.6438,1.6438,0,0,0,1.24-.53,2.0464,2.0464,0,0,0,.5042-1.47A2.023,2.023,0,0,0,170.5364,22.8314Z"/><path class="cls-2" d="M177.58,21.6856a4.0678,4.0678,0,0,1,1.4786-1.709,3.8033,3.8033,0,0,1,2.0857-.5987,3.4712,3.4712,0,0,1,1.65.3847,2.9,2.9,0,0,1,1.1368,1.051V16.4373h3.3678V29.0882h-3.3678V27.7549a2.8475,2.8475,0,0,1-1.1113,1.06,3.4734,3.4734,0,0,1-1.6923.3931,3.7611,3.7611,0,0,1-2.0773-.5988,4.0786,4.0786,0,0,1-1.47-1.718,5.9438,5.9438,0,0,1-.5388-2.6067A5.8929,5.8929,0,0,1,177.58,21.6856Zm5.8636,1.1458a1.7338,1.7338,0,0,0-2.4875-.0091,2.0394,2.0394,0,0,0-.4955,1.4623,2.0739,2.0739,0,0,0,.4955,1.4616,1.6237,1.6237,0,0,0,1.2479.538,1.6435,1.6435,0,0,0,1.24-.53,2.0465,2.0465,0,0,0,.5043-1.47A2.0231,2.0231,0,0,0,183.4433,22.8314Z"/><path class="cls-2" d="M192.3841,28.6093a4.4039,4.4039,0,0,1-1.7867-1.71,5.09,5.09,0,0,1-.65-2.615,5.0051,5.0051,0,0,1,.6583-2.599,4.4618,4.4618,0,0,1,1.7951-1.709,5.8278,5.8278,0,0,1,5.1458,0,4.4662,4.4662,0,0,1,1.7951,1.709,5.4778,5.4778,0,0,1,0,5.2057,4.4352,4.4352,0,0,1-1.8038,1.718,5.845,5.845,0,0,1-5.1542,0Zm3.7438-2.829a2.159,2.159,0,0,0,.47-1.4957,2.126,2.126,0,0,0-.47-1.4873,1.5036,1.5036,0,0,0-1.1538-.513,1.4775,1.4775,0,0,0-1.1455.513,2.1522,2.1522,0,0,0-.4614,1.4873,2.2354,2.2354,0,0,0,.4443,1.5041,1.4455,1.4455,0,0,0,1.1455.513A1.5121,1.5121,0,0,0,196.1279,25.78Z"/><path class="cls-3" d="M34.4477,12.6848H11.6031a3.3589,3.3589,0,0,0-3.3388,2.9918L8.1205,16.985A3.3589,3.3589,0,0,0,9.78,20.261l10.4844,6.0531a3.672,3.672,0,0,1,0,6.36L6.9286,40.3734a3.3588,3.3588,0,0,0-1.6593,2.5418h0a3.358,3.358,0,0,0,.1794,1.5076l1.2125,3.3588A3.359,3.359,0,0,0,9.8206,50H36.23A3.3589,3.3589,0,0,0,39.39,47.7816h0a18.7512,18.7512,0,0,0,1.0016-8.416L37.7865,15.6765A3.3589,3.3589,0,0,0,34.4477,12.6848Z"/><path class="cls-3" d="M29.8539,10.2022A1.5464,1.5464,0,0,1,28.7261,8.676V8.6621A5.5723,5.5723,0,0,0,25.279,3.4349,5.7318,5.7318,0,0,0,17.3247,8.7v.0473a1.47,1.47,0,0,1-.8769,1.3739,1.5088,1.5088,0,0,1-2.1221-1.3739V8.7A8.6108,8.6108,0,0,1,20.2029.4471,8.7306,8.7306,0,0,1,31.7251,8.7v.0473A1.502,1.502,0,0,1,29.8539,10.2022Z"/><path class="cls-4" d="M17.9182,28.4584,8.0347,22.7522a.7753.7753,0,0,0-1.1213.9224l1.9045,5.5686a.776.776,0,0,1,0,.5019L6.9134,35.3137a.7754.7754,0,0,0,1.1213.9224L17.9182,30.53A1.196,1.196,0,0,0,17.9182,28.4584Z"/><path class="cls-5" d="M3.64,26.7976H1.7857A1.099,1.099,0,0,1,.6868,25.6987h0A1.0989,1.0989,0,0,1,1.7857,24.6H3.64a1.0989,1.0989,0,0,1,1.0989,1.099h0A1.099,1.099,0,0,1,3.64,26.7976Z"/><path class="cls-5" d="M4.9794,30.5931H3.125a1.099,1.099,0,0,1-1.0989-1.099h0A1.0989,1.0989,0,0,1,3.125,28.3952H4.9794a1.0989,1.0989,0,0,1,1.0989,1.0989h0A1.099,1.099,0,0,1,4.9794,30.5931Z"/><path class="cls-5" d="M2.9533,34.3885H1.0989A1.0989,1.0989,0,0,1,0,33.29H0a1.0989,1.0989,0,0,1,1.0989-1.0989H2.9533A1.0989,1.0989,0,0,1,4.0522,33.29h0A1.0989,1.0989,0,0,1,2.9533,34.3885Z"/></g></g></svg>