<svg xmlns="http://www.w3.org/2000/svg" viewBox="0 0 77.4173 80"><defs><style>.cls-1{fill:#3c4650;}</style></defs><title>icono4</title><g id="Capa_2" data-name="Capa 2"><g id="Capa_1-2" data-name="Capa 1"><path class="cls-1" d="M50.5208,6.3822c.1935-2.0963,3.4346-2.2575,5.9018-1.4029.1451.0484,4.2248,1.5641,3.0638,2.451C54.9875,6.2371,50.3918,10.3651,50.5208,6.3822ZM18.1093,7.4948c4.95-1.3061,9.9975,3.225,9.8524-1.1449-.21-2.29-3.7733-2.4671-6.4823-1.548C21.3182,4.85,16.8515,6.4951,18.1093,7.4948ZM51.5206,24.523a2.58,2.58,0,1,0,2.58,2.58A2.5876,2.5876,0,0,0,51.5206,24.523Zm-25.7519,0a2.58,2.58,0,1,0,2.58,2.58A2.5876,2.5876,0,0,0,25.7687,24.523ZM77.1273,50.8392c-1.5964,3.87-6.563,1.7738-10.304-.1935-2.1769,11.1425-9.3687,17.9634-20.366,20.0274.0483.1452-.3225-.0161,3.87.1613,5.418.2257,10.2878-.5,15.7059-1.29a4.8519,4.8519,0,0,1-1.58-6.1437,4.5086,4.5086,0,0,1,3.4831,1.8544,5.9789,5.9789,0,0,1,4.87-2.193,5.3007,5.3007,0,0,1-1.1126,5.5793c.7579-.1452,1.3223-.258,1.58-.3387.4192-.129,2.8541,1.8222.5,2.1447-2.3059.3709-3.6443.8224-7.595,1.7415a92.201,92.201,0,0,1-18.9793,2.064l.1613,1.8705a2.2811,2.2811,0,0,1-4.4506,1c.129,2.8864-4.37,3.5153-4.58-.1613l-.0806.8547a2.2828,2.2828,0,0,1-4.5635-.0968,2.2816,2.2816,0,0,1-4.257-1.3706l.1935-1.9995c-5.9179.1451-9.6267.5-9.9653.5-3.37,0-3.37-5.0955,0-5.0955.387,0,4.4666.21,10.1911.4515-9.8525-2.4994-16.7218-8.8688-18.5278-19.06-4.0313,2.064-9.272,4.3215-10.9974.129C-1.37,47.1788,3.79,44.4053,11.0948,39.4387c.1129-1.0642.258-2.1446.4354-3.1928-2.322-3.16-1.87-5.8534-2.5961-9.7395-2.7091.387-3.7411-1.4674-3.8056-3.725a11.2044,11.2044,0,0,1,.387-2.4832c.1774-.29,1.6287-.3225,2.0479-.4193.9675-5.1117,8.1593-5.3535,14.6578-5.5632A23.2232,23.2232,0,0,1,35.2664,6.5273a5.6139,5.6139,0,0,1-.387-6.5146A5.1579,5.1579,0,0,1,39.12,3.7538a4.07,4.07,0,0,1,3.16-1.7254,3.5724,3.5724,0,0,1-.79,4.1764c6.4984.5644,11.6424,3.9829,15.48,8.1755,5.8211.2418,11.5778.9513,12.4324,5.4825.4354.0968,1.8706.129,2.0479.4193a11.198,11.198,0,0,1,.387,2.4832c-.0806,2.2414-1.0965,4.0958-3.8055,3.7249-.516,2.79-.4354,5.3052-1.4029,7.6917a42.5675,42.5675,0,0,1,.774,5.87c5.9663,4.0958,11.336,6.8532,9.7235,10.7877ZM33.46,24.5068c.1451-7.095-6.1114-6.8048-12.6744-6.4984-3.4991.1613-6.2727.3064-7.3369,2.2414-1.8383,3.37.9514,14.98,3.741,16.3186,1.58.7579,11.8359,1.2739,13.916-1.1448,1.3223-1.5158,2.4188-7.9659,2.3543-10.9168Zm8.3851,9.401c-.6934-2-.9675-4.8537-2.4672-5.2729a6.5356,6.5356,0,0,0-1.7737,0c-1.6126.4515-1.7416,3.5636-2.7413,5.9985,2.4832,0,3.1121,1.5642,3.8216,1.5642C39.3783,36.1976,39.7008,34.3754,41.8455,33.9078ZM63.7273,20.25c-1.0643-1.9511-3.9991-2.08-7.4982-2.2414-6.4823-.3064-12.61-.6127-12.4647,6.4984-.0807,2.9509.8062,9.401,2.1285,10.9329,2.0962,2.4026,12.3518,1.9028,13.916,1.1449C62.3566,35.3591,65.6946,23.8618,63.7273,20.25Z"/></g></g></svg>