<svg xmlns="http://www.w3.org/2000/svg" viewBox="0 0 67.2265 80"><defs><style>.cls-1{fill:#3c4650;}</style></defs><title>icono2</title><g id="Capa_2" data-name="Capa 2"><g id="Capa_1-2" data-name="Capa 1"><path class="cls-1" d="M56.2067,42.2755c-.0358-6.5547,2.9291-11.502,8.93-15.1456-3.3577-4.8044-8.43-7.4477-15.1277-7.9657-6.34-.5-13.27,3.6971-15.8065,3.6971-2.679,0-8.823-3.5185-13.6453-3.5185C10.5912,19.5035,0,27.2907,0,43.1328A44.5153,44.5153,0,0,0,2.5719,57.6355C4.858,64.19,13.11,80.2646,21.7182,79.9967c4.5009-.1072,7.68-3.197,13.5382-3.197,5.68,0,8.6266,3.197,13.6453,3.197,8.68-.125,16.1458-14.7348,18.3248-21.3075-11.645-5.4831-11.02-16.0743-11.02-16.4137ZM46.0977,12.9488A16.8223,16.8223,0,0,0,50.3842,0,18.938,18.938,0,0,0,38.257,6.2333a17.0854,17.0854,0,0,0-4.5723,12.8416C38.3463,19.4321,42.597,17.0388,46.0977,12.9488Z"/></g></g></svg>