<svg xmlns="http://www.w3.org/2000/svg" viewBox="0 0 64.5119 80"><defs><style>.cls-1{fill:#3c4650;}</style></defs><title>icono1</title><g id="Capa_2" data-name="Capa 2"><g id="Capa_1-2" data-name="Capa 1"><path class="cls-1" d="M14.1926.0214S35.7073-1.3011,33.7075,16.859c0,0,3.08-12.08,16.6118-6.548,0,0-2.8547,11.9347-14.1926,9.0317,0,0,2.3546-8.8059,10.6606-9.1284,0,0-6.4351-1.6612-13.2411,7.87,0,0-3.1934-15.2409-15.0958-16.08,0,0,12.1282,3.1288,12.5153,17.3376C30.9657,19.3588,13.8055,20.4716,14.1926.0214Zm50.3193,50.9c0,7.822-1.5644,15.37-5.161,21.3373C52.5449,77.2421,42.4166,80,32.2559,80,22.1115,80,11.967,77.2421,5.161,72.2586,1.5644,66.2912,0,58.7433,0,50.9213c0-7.806,2.8547-15.2732,6.4512-21.2406,6.806-4.9835,15.66-7.8382,25.8047-7.8382,10.1607,0,18.9988,2.8385,25.8048,7.8382C61.6572,35.6481,64.5119,43.1153,64.5119,50.9213ZM19.3536,67.7427a4.5159,4.5159,0,1,0-4.5159,4.5159A4.5084,4.5084,0,0,0,19.3536,67.7427Zm0-10.6767a4.5159,4.5159,0,1,0-4.5159,4.5159A4.5084,4.5084,0,0,0,19.3536,57.066Zm0-10.6767a4.5159,4.5159,0,1,0-4.5159,4.5158A4.5084,4.5084,0,0,0,19.3536,46.3893ZM30.9657,67.7427A4.5159,4.5159,0,1,0,26.45,72.2586,4.5084,4.5084,0,0,0,30.9657,67.7427Zm0-10.6767A4.5159,4.5159,0,1,0,26.45,61.5819,4.5084,4.5084,0,0,0,30.9657,57.066Zm0-10.6767A4.5159,4.5159,0,1,0,26.45,50.9051,4.5084,4.5084,0,0,0,30.9657,46.3893ZM42.5779,67.7427a4.5159,4.5159,0,1,0-4.5159,4.5159A4.5084,4.5084,0,0,0,42.5779,67.7427Zm0-10.6767a4.5159,4.5159,0,1,0-4.5159,4.5159A4.5084,4.5084,0,0,0,42.5779,57.066Zm0-10.6767a4.5159,4.5159,0,1,0-4.5159,4.5158A4.5084,4.5084,0,0,0,42.5779,46.3893ZM54.19,67.7427a4.5159,4.5159,0,1,0-4.5158,4.5159A4.5084,4.5084,0,0,0,54.19,67.7427Zm0-10.6767a4.5159,4.5159,0,1,0-4.5158,4.5159A4.5084,4.5084,0,0,0,54.19,57.066Zm0-10.6767a4.5159,4.5159,0,1,0-4.5158,4.5158A4.5084,4.5084,0,0,0,54.19,46.3893Zm3.8707-6.3867a40.336,40.336,0,0,0-2.58-9.0316A52.28,52.28,0,0,0,32.2559,25.81,52.2794,52.2794,0,0,0,9.0317,30.971a40.1057,40.1057,0,0,0-2.5805,9.0316,143.4462,143.4462,0,0,1,25.8047-2.3869,143.4465,143.4465,0,0,1,25.8048,2.3869Z"/></g></g></svg>