<svg xmlns="http://www.w3.org/2000/svg" viewBox="0 0 79.5034 80"><defs><style>.cls-1{fill:#3c4650;}</style></defs><title>icono3</title><g id="Capa_2" data-name="Capa 2"><g id="Capa_1-2" data-name="Capa 1"><path class="cls-1" d="M11.7549,57.8455a5.9029,5.9029,0,1,1-5.0081-5.0629c-12.2245-17.3888,8.1205-29.7538,8.1205-29.7538-.9151,6.715-1.2868,14.2358-1.2868,14.2358-10.5114,6.4793.1452,10.0039,6.2169,11.38A21.9221,21.9221,0,0,0,40.3579,63.002c.3,0,.5887-.0328.8854-.0437l.0172,2.9452c-15.4945.2171-24.7832-4.5506-29.5056-8.058ZM28.6206,6.6706a5.8669,5.8669,0,0,0-.5278-3.3029,5.9264,5.9264,0,1,0-4.8676,8.4672c-3.5215,4.6709-8.4063,13.9876-8.1861,29.6712l3.4106-.0235c0-.14-.0219-.2764-.0219-.4185A21.9286,21.9286,0,0,1,32.1531,20.7425c1.2493-5.8889,4.7942-17.8495,11.5248-6.9165,0,0,7.5178.3717,14.239,1.2868,0,0-12.1557-19.9889-29.2947-8.4422ZM76.1241,27.6231a5.9249,5.9249,0,1,0-8.4079-4.4819c-4.9551-3.4262-14.03-7.663-28.6482-7.4553L39.09,19.2c.4217-.0234.8418-.064,1.2712-.064A21.9207,21.9207,0,0,1,60.7388,32.9967c6.106,1.4055,16.4066,4.9316,6.0061,11.3281,0,0-.3654,7.5162-1.2821,14.2359,0,0,20.84-12.6743,7.652-30.391a5.8482,5.8482,0,0,0,3.0155-.5466Zm-17.8823,40.52c3.3466-5.0691,7.2491-14.0063,7.0492-28.0564l-3.0483.0219c.0125.3217.0468.6356.0468.96A21.916,21.916,0,0,1,48.0177,61.5965c-1.382,6.0826-4.91,16.6564-11.364,6.1669,0,0-7.5146-.3654-14.2406-1.2836,0,0,12.4806,20.5105,29.9678,7.9643a5.8558,5.8558,0,0,0,.5685,2.1863,5.9233,5.9233,0,1,0,5.2924-8.4781Z"/></g></g></svg>