<svg xmlns="http://www.w3.org/2000/svg" viewBox="0 0 48.7449 65"><defs><style>.cls-1{fill:#05a;}</style></defs><title>icon3</title><g id="Capa_2" data-name="Capa 2"><g id="Capa_1-2" data-name="Capa 1"><path class="cls-1" d="M45.4952.41,40.6207,6.0965,33.7152.41a2.0182,2.0182,0,0,0-2.4372,0L24.3724,6.0965,17.4669.41A2.0182,2.0182,0,0,0,15.03.41L8.1241,6.0965,3.25.41A2.03,2.03,0,0,0,0,2.0345v60.931A2.03,2.03,0,0,0,3.25,64.59l4.8744-5.6869L15.03,64.59a2.0182,2.0182,0,0,0,2.4372,0l6.9055-5.6869L31.278,64.59a2.0182,2.0182,0,0,0,2.4372,0l6.9055-5.6869L45.4952,64.59a2.0318,2.0318,0,0,0,3.25-1.6249V2.0345A2.03,2.03,0,0,0,45.4952.41ZM40.6207,45.7017a1.0185,1.0185,0,0,1-1.0155,1.0156H9.14a1.0186,1.0186,0,0,1-1.0156-1.0156v-2.031A1.0185,1.0185,0,0,1,9.14,42.6552H39.6052a1.0185,1.0185,0,0,1,1.0155,1.0155Zm0-12.1862a1.0185,1.0185,0,0,1-1.0155,1.0155H9.14a1.0185,1.0185,0,0,1-1.0156-1.0155v-2.031A1.0185,1.0185,0,0,1,9.14,30.469H39.6052a1.0185,1.0185,0,0,1,1.0155,1.0155Zm0-12.1862a1.0185,1.0185,0,0,1-1.0155,1.0155H9.14a1.0185,1.0185,0,0,1-1.0156-1.0155v-2.031A1.0186,1.0186,0,0,1,9.14,18.2827H39.6052a1.0185,1.0185,0,0,1,1.0155,1.0156Z"/></g></g></svg>