<svg xmlns="http://www.w3.org/2000/svg" viewBox="0 0 65 65.0001"><defs><style>.cls-1{fill:#05a;fill-rule:evenodd;}</style></defs><title>icon3_1</title><g id="Capa_2" data-name="Capa 2"><g id="Capa_1-2" data-name="Capa 1"><path class="cls-1" d="M10.4216,51.4583H8.125A8.1277,8.1277,0,0,1,0,43.3333v-8.125C0,15.7761,14.5627,0,32.5,0S65,15.7761,65,35.2083v8.125a8.1279,8.1279,0,0,1-8.125,8.125H54.5783C47.2928,64.0061,35.88,65,32.5,65s-14.7929-.994-22.0784-13.5418ZM54.1667,35.5442A2.4738,2.4738,0,0,1,50.73,33.3857a24.5551,24.5551,0,0,0-.1436-2.4782c-4.7693-.6879-9.7987-5.2162-10.0181-10.0831-3.5614,5.43-12.2552,11.2937-19.0775,11.2937,2.9413-1.8931,4.9806-7.51,5.1539-9.5007-1.5735,2.9575-7.8487,8.4933-12.3256,9.4439-.0244.4414-.0487.883-.0487,1.3244a2.4735,2.4735,0,0,1-3.4369,2.1585V45.7573a7.712,7.712,0,0,0,2.8194,1.6088,2.449,2.449,0,0,1,1.4111,1.1483C21.0383,59.4723,29.7591,59.5833,32.5,59.5833c2.516,0,10.0723-.0947,15.9169-8.5826a29.2483,29.2483,0,0,1-10.1807,1.7685A6.6959,6.6959,0,0,1,32.5,55.5208c-3.4884,0-6.3186-2.1232-6.3186-4.7395s2.83-4.74,6.3186-4.74a6.7181,6.7181,0,0,1,5.72,2.7219c5.1458-.07,11.7433-.9046,15.9467-7.1636V35.5442Zm-29.7917-1.69c1.8578,0,3.3664,1.82,3.3664,4.0625s-1.5086,4.0625-3.3664,4.0625-3.3665-1.82-3.3665-4.0625,1.5086-4.0625,3.3665-4.0625Zm16.25,0c1.8578,0,3.3665,1.82,3.3665,4.0625s-1.5087,4.0625-3.3665,4.0625-3.3665-1.82-3.3665-4.0625,1.5086-4.0625,3.3665-4.0625Zm14.8362-4.0625h3.6752C56.8181,15.9305,45.7654,5.4167,32.5,5.4167S8.1819,15.9305,5.8636,29.7917H9.5388C10.9471,18.8961,18.7768,8.878,32.5,8.878S54.0529,18.8961,55.4612,29.7917Z"/></g></g></svg>