<svg xmlns="http://www.w3.org/2000/svg" viewBox="0 0 26.1196 20"><defs><style>.cls-1{fill:#fff;}</style></defs><title>b_login</title><g id="Capa_2" data-name="Capa 2"><g id="Capa_1-2" data-name="Capa 1"><path class="cls-1" d="M21.2222,19.59H16.9369a.6139.6139,0,0,1-.6121-.6122V16.9369a.6138.6138,0,0,1,.6121-.6121h4.2853a1.6308,1.6308,0,0,0,1.6325-1.6325V4.8974A1.6307,1.6307,0,0,0,21.2222,3.265H16.9369a.6139.6139,0,0,1-.6121-.6122V.6122A.6139.6139,0,0,1,16.9369,0h4.2853A4.8986,4.8986,0,0,1,26.12,4.8974v9.7949A4.8986,4.8986,0,0,1,21.2222,19.59ZM18.8245,9.3357l-8.57-8.57a1.2264,1.2264,0,0,0-2.0916.8673V6.53H1.2244A1.2215,1.2215,0,0,0,0,7.7543v4.8974A1.2214,1.2214,0,0,0,1.2244,13.876h6.938v4.8975a1.2263,1.2263,0,0,0,2.0916.8672l8.5705-8.57A1.2348,1.2348,0,0,0,18.8245,9.3357Z"/></g></g></svg>