<svg xmlns="http://www.w3.org/2000/svg" viewBox="0 0 118.75 50"><defs><style>.cls-1{fill:none;}.cls-2{fill:#333;}.cls-3{fill:#e6501e;}.cls-4{fill:#2d353c;}.cls-5{fill:#05a;}</style></defs><title>logo</title><g id="Capa_2" data-name="Capa 2"><g id="Capa_1-2" data-name="Capa 1"><rect class="cls-1" width="118.75" height="50"/><path class="cls-2" d="M55.2309,21.1388a2.748,2.748,0,0,1-1.1051-2.1779h2.7171a1.0133,1.0133,0,0,0,.286.7023,1.0348,1.0348,0,0,0,1.2156.0456.5821.5821,0,0,0,.2274-.4876.6891.6891,0,0,0-.3772-.6238,6.5983,6.5983,0,0,0-1.2219-.494,11.0544,11.0544,0,0,1-1.45-.5788,2.783,2.783,0,0,1-.962-.8189,2.2713,2.2713,0,0,1-.4094-1.4109,2.57,2.57,0,0,1,.442-1.5143,2.7386,2.7386,0,0,1,1.222-.9556A4.565,4.565,0,0,1,57.5839,12.5a4.0357,4.0357,0,0,1,2.5544.7473,2.69,2.69,0,0,1,1.0206,2.1H58.39a.8183.8183,0,0,0-.2533-.6244.9118.9118,0,0,0-.6175-.2078.661.661,0,0,0-.468.1691.6231.6231,0,0,0-.1821.4807.5919.5919,0,0,0,.2014.4484,1.8466,1.8466,0,0,0,.5006.3255q.2987.1359.8841.3445a10.81,10.81,0,0,1,1.4363.5915,2.9338,2.9338,0,0,1,.975.8189,2.1041,2.1041,0,0,1,.41,1.3324,2.6978,2.6978,0,0,1-.41,1.4693,2.81,2.81,0,0,1-1.183,1.0266,4.1228,4.1228,0,0,1-1.8264.3774A4.2979,4.2979,0,0,1,55.2309,21.1388Z"/><path class="cls-2" d="M70.8961,14.5151v7.2931h-2.561v-1.04a2.3966,2.3966,0,0,1-.8971.7993,2.7433,2.7433,0,0,1-1.3128.3058,2.5326,2.5326,0,0,1-2.0085-.8385,3.3414,3.3414,0,0,1-.7346-2.2817V14.5151h2.535v3.9132a1.3875,1.3875,0,0,0,.3316.9816,1.2644,1.2644,0,0,0,1.7615,0,1.406,1.406,0,0,0,.3249-.9816V14.5151Z"/><path class="cls-2" d="M76.72,14.7229a2.6408,2.6408,0,0,1,1.2868-.2989,2.8617,2.8617,0,0,1,1.58.4553,3.1123,3.1123,0,0,1,1.1178,1.2995,4.4832,4.4832,0,0,1,.41,1.9765,4.5215,4.5215,0,0,1-.41,1.9823,3.1054,3.1054,0,0,1-1.1178,1.3065,2.8625,2.8625,0,0,1-1.58.4553,2.6052,2.6052,0,0,1-1.28-.2989,2.2754,2.2754,0,0,1-.8515-.8062v4.4983h-2.548V14.5151h2.548v1.014A2.1651,2.1651,0,0,1,76.72,14.7229Zm1.4233,2.32a1.3107,1.3107,0,0,0-1.885.0069,1.5375,1.5375,0,0,0-.3835,1.1051,1.5553,1.5553,0,0,0,.3835,1.1178,1.2971,1.2971,0,0,0,1.885-.0063,1.561,1.561,0,0,0,.3838-1.1115A1.535,1.535,0,0,0,78.1436,17.0433Z"/><path class="cls-2" d="M90.0714,18.6753H85.2483a1.34,1.34,0,0,0,.3315.89,1.0122,1.0122,0,0,0,.7476.2926.9368.9368,0,0,0,.91-.5719h2.7169a3.1725,3.1725,0,0,1-.6564,1.3451,3.3762,3.3762,0,0,1-1.2286.93,3.8948,3.8948,0,0,1-1.638.3382,3.9533,3.9533,0,0,1-1.9174-.4553,3.2614,3.2614,0,0,1-1.3131-1.3,3.9939,3.9939,0,0,1-.4746-1.9886,4.0063,4.0063,0,0,1,.468-1.9828,3.2335,3.2335,0,0,1,1.3065-1.2932,4.3367,4.3367,0,0,1,3.8418-.0133,3.1862,3.1862,0,0,1,1.3,1.2678,3.8745,3.8745,0,0,1,.468,1.943A4.6265,4.6265,0,0,1,90.0714,18.6753ZM87.51,17.44a.9147.9147,0,0,0-.3119-.7346,1.1592,1.1592,0,0,0-.78-.2666,1.1451,1.1451,0,0,0-.767.2533,1.2345,1.2345,0,0,0-.39.7479Z"/><path class="cls-2" d="M95.7135,14.8141a2.523,2.523,0,0,1,1.3128-.3642v2.7175h-.715a1.9455,1.9455,0,0,0-1.2349.3249,1.3778,1.3778,0,0,0-.4031,1.131v3.1849H92.1252V14.5151h2.5481V15.802A3.3145,3.3145,0,0,1,95.7135,14.8141Z"/><path class="cls-2" d="M64.825,28.2437v9.1651H62.277V32.3519l-1.729,5.0569H58.416l-1.7421-5.0961v5.0961H54.1258V28.2437h3.081l2.3011,5.9543,2.2491-5.9543Z"/><path class="cls-2" d="M74.1852,34.2759H69.362a1.3411,1.3411,0,0,0,.3315.89,1.0121,1.0121,0,0,0,.7476.2926.9368.9368,0,0,0,.91-.5719H74.068a3.1735,3.1735,0,0,1-.6564,1.3452,3.3771,3.3771,0,0,1-1.2286.93,3.8948,3.8948,0,0,1-1.638.3382,3.9531,3.9531,0,0,1-1.9173-.4553,3.2623,3.2623,0,0,1-1.3132-1.3,4.4188,4.4188,0,0,1-.0066-3.9714A3.2341,3.2341,0,0,1,68.6144,30.48a4.337,4.337,0,0,1,3.8419-.0133,3.1862,3.1862,0,0,1,1.3,1.2679,3.8743,3.8743,0,0,1,.468,1.943A4.6438,4.6438,0,0,1,74.1852,34.2759Zm-2.5611-1.235a.9148.9148,0,0,0-.3119-.7346,1.159,1.159,0,0,0-.78-.2666,1.1444,1.1444,0,0,0-.7669.2534,1.2334,1.2334,0,0,0-.39.7478Z"/><path class="cls-2" d="M79.8275,30.4147a2.523,2.523,0,0,1,1.3129-.3641V32.768h-.715a1.9458,1.9458,0,0,0-1.235.3249,1.3779,1.3779,0,0,0-.4031,1.1311v3.1848h-2.548v-7.293h2.548v1.2868A3.3156,3.3156,0,0,1,79.8275,30.4147Z"/><path class="cls-2" d="M83.0773,31.78a3.2245,3.2245,0,0,1,1.3065-1.3,3.9551,3.9551,0,0,1,1.9176-.4553,3.6218,3.6218,0,0,1,2.34.7606,3.494,3.494,0,0,1,1.2222,2.1253H87.16a.9059.9059,0,0,0-.91-.715.8826.8826,0,0,0-.7606.3965,2.0164,2.0164,0,0,0-.2793,1.1639,2.0448,2.0448,0,0,0,.2793,1.17.8783.8783,0,0,0,.7606.4033.8924.8924,0,0,0,.91-.7155h2.7042a3.5143,3.5143,0,0,1-1.2222,2.12,3.6034,3.6034,0,0,1-2.34.7669,3.9551,3.9551,0,0,1-1.9176-.4553,3.2229,3.2229,0,0,1-1.3065-1.3,4.433,4.433,0,0,1,0-3.965Z"/><path class="cls-2" d="M91.8852,31.78a3.1091,3.1091,0,0,1,1.1178-1.3,2.8608,2.8608,0,0,1,1.58-.4553,2.67,2.67,0,0,1,1.3.2989,2.1655,2.1655,0,0,1,.8451.8062V30.1158h2.5481v7.293H96.7277V36.3949a2.1558,2.1558,0,0,1-.8515.8062,2.68,2.68,0,0,1-1.2935.2989,2.8608,2.8608,0,0,1-1.58-.4553,3.1019,3.1019,0,0,1-1.1178-1.3065,4.9862,4.9862,0,0,1,0-3.9587Zm4.459.8713a1.3185,1.3185,0,0,0-1.8916-.0069,1.5511,1.5511,0,0,0-.3768,1.112,1.5773,1.5773,0,0,0,.3768,1.1115,1.2348,1.2348,0,0,0,.949.4091,1.25,1.25,0,0,0,.9426-.4028,1.5562,1.5562,0,0,0,.3835-1.1178A1.5383,1.5383,0,0,0,96.3442,32.6508Z"/><path class="cls-2" d="M101.7,31.78a3.0937,3.0937,0,0,1,1.1245-1.3,2.892,2.892,0,0,1,1.5861-.4553,2.6389,2.6389,0,0,1,1.2545.2926,2.2048,2.2048,0,0,1,.8645.7992v-3.328h2.561v9.62H106.53V36.3949a2.1655,2.1655,0,0,1-.8451.8062,2.6412,2.6412,0,0,1-1.2869.2989,2.8613,2.8613,0,0,1-1.58-.4553A3.1033,3.1033,0,0,1,101.7,35.7382a4.9862,4.9862,0,0,1,0-3.9587Zm4.4591.8713a1.3185,1.3185,0,0,0-1.8916-.0069,1.5507,1.5507,0,0,0-.3769,1.112,1.5769,1.5769,0,0,0,.3769,1.1115,1.2347,1.2347,0,0,0,.9489.4091,1.25,1.25,0,0,0,.9427-.4028,1.5562,1.5562,0,0,0,.3835-1.1178A1.5383,1.5383,0,0,0,106.1594,32.6508Z"/><path class="cls-2" d="M112.9585,37.0447a3.3493,3.3493,0,0,1-1.3587-1.3,3.87,3.87,0,0,1-.494-1.9886,3.8058,3.8058,0,0,1,.5006-1.9764,3.3923,3.3923,0,0,1,1.3651-1.3,4.4316,4.4316,0,0,1,3.9131,0,3.3967,3.3967,0,0,1,1.3651,1.3,4.1656,4.1656,0,0,1,0,3.9587,3.3738,3.3738,0,0,1-1.3717,1.3065,4.4453,4.4453,0,0,1-3.9195,0Zm2.847-2.1513a1.6426,1.6426,0,0,0,.3575-1.1375,1.6172,1.6172,0,0,0-.3575-1.131,1.1436,1.1436,0,0,0-.8775-.39,1.1237,1.1237,0,0,0-.8711.39,1.6366,1.6366,0,0,0-.3508,1.131A1.6994,1.6994,0,0,0,114.044,34.9a1.0987,1.0987,0,0,0,.8711.39A1.15,1.15,0,0,0,115.8055,34.8934Z"/><path class="cls-3" d="M34.4477,12.6848H11.6031a3.3589,3.3589,0,0,0-3.3388,2.9918L8.1205,16.985A3.3589,3.3589,0,0,0,9.78,20.261l10.4844,6.0531a3.672,3.672,0,0,1,0,6.36L6.9286,40.3734a3.3589,3.3589,0,0,0-1.6593,2.5418h0a3.358,3.358,0,0,0,.1794,1.5076l1.2125,3.3588A3.359,3.359,0,0,0,9.8206,50H36.23A3.359,3.359,0,0,0,39.39,47.7816l1.2125-3.3588a3.358,3.358,0,0,0,.1794-1.5076l-2.995-27.2387A3.3589,3.3589,0,0,0,34.4477,12.6848Z"/><path class="cls-3" d="M29.8539,10.2022A1.5464,1.5464,0,0,1,28.7261,8.676V8.6622A5.5723,5.5723,0,0,0,25.279,3.4349,5.7318,5.7318,0,0,0,17.3247,8.7v.0473a1.47,1.47,0,0,1-.8769,1.3739,1.5088,1.5088,0,0,1-2.1221-1.3739V8.7A8.6108,8.6108,0,0,1,20.2029.4471,8.7306,8.7306,0,0,1,31.7251,8.7v.0473A1.502,1.502,0,0,1,29.8539,10.2022Z"/><path class="cls-4" d="M17.9182,28.4584,8.0347,22.7522a.7754.7754,0,0,0-1.1213.9224l1.9045,5.5686a.776.776,0,0,1,0,.5019L6.9134,35.3137a.7754.7754,0,0,0,1.1213.9224L17.9182,30.53A1.196,1.196,0,0,0,17.9182,28.4584Z"/><path class="cls-5" d="M3.64,26.7976H1.7857A1.099,1.099,0,0,1,.6868,25.6987h0A1.0989,1.0989,0,0,1,1.7857,24.6H3.64a1.0989,1.0989,0,0,1,1.0989,1.099h0A1.099,1.099,0,0,1,3.64,26.7976Z"/><path class="cls-5" d="M4.9794,30.5931H3.125a1.099,1.099,0,0,1-1.0989-1.099h0A1.0989,1.0989,0,0,1,3.125,28.3952H4.9794a1.0989,1.0989,0,0,1,1.0989,1.0989h0A1.099,1.099,0,0,1,4.9794,30.5931Z"/><path class="cls-5" d="M2.9533,34.3885H1.0989A1.0989,1.0989,0,0,1,0,33.29H0a1.0989,1.0989,0,0,1,1.0989-1.0989H2.9533A1.0989,1.0989,0,0,1,4.0522,33.29h0A1.0989,1.0989,0,0,1,2.9533,34.3885Z"/></g></g></svg>