<svg xmlns="http://www.w3.org/2000/svg" viewBox="0 0 80 80"><defs><style>.cls-1{fill:#fff;}</style></defs><title>alert_error</title><g id="Capa_2" data-name="Capa 2"><g id="Capa_1-2" data-name="Capa 1"><path class="cls-1" d="M40,4A36,36,0,1,1,4,40,36.0409,36.0409,0,0,1,40,4m0-4A40,40,0,1,0,80,40,40,40,0,0,0,40,0Z"/><path class="cls-1" d="M57.5,50.672l-6.8246,6.8248L40,46.8219,29.3249,57.4968,22.5,50.672q5.3319-5.3376,10.6635-10.6752L22.5,29.3336l6.837-6.8368L40,33.16,50.6633,22.4968,57.5,29.3336,46.8368,39.9968Q52.1681,45.3344,57.5,50.672Z"/></g></g></svg>