<svg xmlns="http://www.w3.org/2000/svg" viewBox="0 0 80 80"><defs><style>.cls-1{fill:#fff;}</style></defs><title>alert_editar</title><g id="Capa_2" data-name="Capa 2"><g id="Capa_1-2" data-name="Capa 1"><path class="cls-1" d="M40,4A36,36,0,1,1,4,40,36.0409,36.0409,0,0,1,40,4m0-4A40,40,0,1,0,80,40,40,40,0,0,0,40,0Z"/><path class="cls-1" d="M42.375,28.8734l8.7512,8.7515L32.1234,56.6285l-7.8023.8613A1.6408,1.6408,0,0,1,22.51,55.6776l.8682-7.8082Zm14.1637-1.3029L52.43,23.4613a3.2828,3.2828,0,0,0-4.6421,0L43.922,27.3271l8.7511,8.7515,3.8656-3.8658A3.283,3.283,0,0,0,56.5387,27.5705Z"/></g></g></svg>