<svg xmlns="http://www.w3.org/2000/svg" viewBox="0 0 20 19.9985"><defs><style>.cls-1{fill:#fff;}</style></defs><title>icon1</title><g id="Capa_2" data-name="Capa 2"><g id="Capa_1-2" data-name="Capa 1"><path class="cls-1" d="M4.9635,5.7227a.6339.6339,0,0,0,.625.5273h.6446A.6326.6326,0,0,0,6.87,5.5469a5.1066,5.1066,0,0,0-1.43-2.918A3.7046,3.7046,0,0,1,4.4088.5391.6291.6291,0,0,0,3.78,0H3.1393a.6369.6369,0,0,0-.6367.7031A5.6777,5.6777,0,0,0,4.0885,4,3.1721,3.1721,0,0,1,4.9635,5.7227Z"/><path class="cls-1" d="M9.3385,5.7227a.6339.6339,0,0,0,.625.5273h.6446a.6326.6326,0,0,0,.6367-.7031,5.1066,5.1066,0,0,0-1.43-2.918A3.7046,3.7046,0,0,1,8.7838.5391.6291.6291,0,0,0,8.1549,0H7.5143a.6348.6348,0,0,0-.6367.7031A5.6777,5.6777,0,0,0,8.4635,4,3.1721,3.1721,0,0,1,9.3385,5.7227Z"/><path class="cls-1" d="M15.62,7.4985H1.25A1.2505,1.2505,0,0,0,0,8.7485v7.5a3.7512,3.7512,0,0,0,3.75,3.75h7.5a3.7515,3.7515,0,0,0,3.75-3.75h.62a4.375,4.375,0,1,0,0-8.75Zm0,6.25H15v-3.75h.62a1.875,1.875,0,1,1,0,3.75Z"/></g></g></svg>