<svg xmlns="http://www.w3.org/2000/svg" viewBox="0 0 100 100"><defs><style>.cls-1{fill:#05a;}.cls-2{fill:#fff;}</style></defs><title>avatar_encargado</title><g id="Capa_2" data-name="Capa 2"><g id="Capa_1-2" data-name="Capa 1"><path class="cls-1" d="M50,0h0a50,50,0,0,1,50,50v0a50,50,0,0,1-50,50h0A50,50,0,0,1,0,50v0A50,50,0,0,1,50,0Z"/><circle class="cls-2" cx="50" cy="37.5" r="12.5"/><path class="cls-2" d="M58.75,53.125H57.1191a16.9994,16.9994,0,0,1-14.2382,0H41.25A13.1284,13.1284,0,0,0,28.125,66.25v4.0625A4.6887,4.6887,0,0,0,32.8125,75h34.375a4.6887,4.6887,0,0,0,4.6875-4.6875V66.25A13.1284,13.1284,0,0,0,58.75,53.125Z"/></g></g></svg>