<svg xmlns="http://www.w3.org/2000/svg" viewBox="0 0 16.875 11.25"><defs><style>.cls-1{fill:#3d4040;}</style></defs><title>mostrar</title><g id="Capa_2" data-name="Capa 2"><g id="Capa_1-2" data-name="Capa 1"><path class="cls-1" d="M16.773,5.1973A9.3966,9.3966,0,0,0,8.4375,0,9.398,9.398,0,0,0,.1019,5.1976a.9477.9477,0,0,0,0,.8551A9.3967,9.3967,0,0,0,8.4375,11.25,9.398,9.398,0,0,0,16.773,6.0524.9477.9477,0,0,0,16.773,5.1973ZM8.4375,9.8438a4.2167,4.2167,0,1,1,.0041,0Zm0-7.0313a2.7944,2.7944,0,0,0-.7415.111,1.4019,1.4019,0,0,1-1.96,1.96,2.8059,2.8059,0,1,0,2.7015-2.071Z"/></g></g></svg>