<svg xmlns="http://www.w3.org/2000/svg" viewBox="0 0 40 40"><defs><style>.cls-1{isolation:isolate;}.cls-2{fill:#fff;}.cls-3{mix-blend-mode:multiply;}.cls-4{fill:#161d22;}</style></defs><title>button hamburguesa</title><g class="cls-1"><g id="Capa_2" data-name="Capa 2"><g id="Capa_1-2" data-name="Capa 1"><rect class="cls-2" width="40" height="40" rx="5"/><g class="cls-3"><path class="cls-4" d="M7.625,11.5a2.0007,2.0007,0,0,1,2-2h20.75a2,2,0,0,1,0,4H9.625A2.0007,2.0007,0,0,1,7.625,11.5ZM30.375,18H9.625a2,2,0,0,0,0,4h20.75a2,2,0,0,0,0-4Zm0,8.5H9.625a2,2,0,0,0,0,4h20.75a2,2,0,0,0,0-4Z"/></g></g></g></g></svg>