<svg xmlns="http://www.w3.org/2000/svg" viewBox="0 0 15 20"><defs><style>.cls-1{fill:#fff;}</style></defs><title>departamentos</title><g id="Capa_2" data-name="Capa 2"><g id="Capa_1-2" data-name="Capa 1"><path class="cls-1" d="M13.125,2.5H10a2.5,2.5,0,0,0-5,0H1.875A1.8754,1.8754,0,0,0,0,4.375v13.75A1.8754,1.8754,0,0,0,1.875,20h11.25A1.8754,1.8754,0,0,0,15,18.125V4.375A1.8754,1.8754,0,0,0,13.125,2.5ZM3.75,16.5625a.9375.9375,0,1,1,.9375-.9375A.9353.9353,0,0,1,3.75,16.5625Zm0-3.75a.9375.9375,0,1,1,.9375-.9375A.9353.9353,0,0,1,3.75,12.8125Zm0-3.75a.9375.9375,0,1,1,.9375-.9375A.9353.9353,0,0,1,3.75,9.0625Zm3.75-7.5A.9375.9375,0,1,1,6.5625,2.5.9353.9353,0,0,1,7.5,1.5625Zm5,14.375a.3134.3134,0,0,1-.3125.3125H6.5625a.3134.3134,0,0,1-.3125-.3125v-.625A.3134.3134,0,0,1,6.5625,15h5.625a.3134.3134,0,0,1,.3125.3125Zm0-3.75a.3134.3134,0,0,1-.3125.3125H6.5625a.3134.3134,0,0,1-.3125-.3125v-.625a.3134.3134,0,0,1,.3125-.3125h5.625a.3134.3134,0,0,1,.3125.3125Zm0-3.75a.3134.3134,0,0,1-.3125.3125H6.5625A.3134.3134,0,0,1,6.25,8.4375v-.625A.3134.3134,0,0,1,6.5625,7.5h5.625a.3134.3134,0,0,1,.3125.3125Z"/></g></g></svg>