<svg xmlns="http://www.w3.org/2000/svg" viewBox="0 0 17.5 20"><defs><style>.cls-1{fill:#fff;}</style></defs><title>listado trabajadores</title><g id="Capa_2" data-name="Capa 2"><g id="Capa_1-2" data-name="Capa 1"><path class="cls-1" d="M17.03,6.25a.47.47,0,0,0,.47-.47V4.22a.4632.4632,0,0,0-.47-.47h-.78V1.87A1.8758,1.8758,0,0,0,14.37,0H1.87A1.8737,1.8737,0,0,0,0,1.87V18.12A1.8756,1.8756,0,0,0,1.87,20h12.5a1.8777,1.8777,0,0,0,1.88-1.88V16.25h.78a.47.47,0,0,0,.47-.47V14.22a.4632.4632,0,0,0-.47-.47h-.78v-2.5h.78a.47.47,0,0,0,.47-.47V9.22a.4632.4632,0,0,0-.47-.47h-.78V6.25ZM8.12,5a2.5,2.5,0,1,1-2.5,2.5A2.4947,2.4947,0,0,1,8.12,5Zm4.38,9.06a.9387.9387,0,0,1-.94.94H4.69a.9387.9387,0,0,1-.94-.94v-.81a2.631,2.631,0,0,1,2.62-2.63H6.7a3.3347,3.3347,0,0,0,2.85,0h.32a2.633,2.633,0,0,1,2.63,2.63Z"/></g></g></svg>