<svg xmlns="http://www.w3.org/2000/svg" viewBox="0 0 300 75"><defs><style>.cls-1{fill:none;}.cls-2{fill:#fff;}</style></defs><title>logotipo</title><g id="Capa_2" data-name="Capa 2"><g id="Capa_1-2" data-name="Capa 1"><rect class="cls-1" width="300" height="75"/><path class="cls-2" d="M84.8573,42.1173A5.29,5.29,0,0,1,82.73,37.9249h5.23a1.9512,1.9512,0,0,0,.55,1.3519,1.9919,1.9919,0,0,0,2.34.0878,1.1207,1.1207,0,0,0,.4376-.9387,1.3268,1.3268,0,0,0-.7259-1.2008,12.7084,12.7084,0,0,0-2.3523-.9509A21.2961,21.2961,0,0,1,85.42,35.16a5.3587,5.3587,0,0,1-1.8518-1.5764,4.3731,4.3731,0,0,1-.7881-2.716,4.9464,4.9464,0,0,1,.8509-2.9149,5.2724,5.2724,0,0,1,2.3522-1.84,8.788,8.788,0,0,1,3.4037-.6254,7.77,7.77,0,0,1,4.9173,1.4385,5.1772,5.1772,0,0,1,1.9645,4.0425h-5.33a1.5747,1.5747,0,0,0-.4877-1.202,1.7546,1.7546,0,0,0-1.1886-.4,1.272,1.272,0,0,0-.9009.3255,1.1989,1.1989,0,0,0-.3505.9253,1.1389,1.1389,0,0,0,.3877.8632,3.5487,3.5487,0,0,0,.9636.6265q.5749.2616,1.7019.6632a20.8256,20.8256,0,0,1,2.7649,1.1386,5.6493,5.6493,0,0,1,1.8768,1.5763,4.0505,4.0505,0,0,1,.7887,2.565,5.1921,5.1921,0,0,1-.7887,2.8283,5.4065,5.4065,0,0,1-2.2772,1.9762,7.9362,7.9362,0,0,1-3.5159.7265A8.2743,8.2743,0,0,1,84.8573,42.1173Z"/><path class="cls-2" d="M115.0128,29.3668V43.4059h-4.93V41.4041a4.6122,4.6122,0,0,1-1.7269,1.5386,5.2816,5.2816,0,0,1-2.5272.5887,4.8754,4.8754,0,0,1-3.8663-1.614,6.433,6.433,0,0,1-1.4142-4.3924V29.3668h4.88V36.9a2.6709,2.6709,0,0,0,.6382,1.89,2.4341,2.4341,0,0,0,3.3909,0,2.7072,2.7072,0,0,0,.6254-1.89V29.3668Z"/><path class="cls-2" d="M126.2242,29.7667a5.0845,5.0845,0,0,1,2.4772-.5754,5.5085,5.5085,0,0,1,3.041.8765,5.9911,5.9911,0,0,1,2.1518,2.5016,8.6284,8.6284,0,0,1,.7887,3.8047,8.7026,8.7026,0,0,1-.7887,3.8159,5.9767,5.9767,0,0,1-2.1518,2.515,5.5092,5.5092,0,0,1-3.041.8764,5.0135,5.0135,0,0,1-2.465-.5754,4.38,4.38,0,0,1-1.6391-1.5519v8.6592h-4.905V29.3668h4.905v1.9518A4.1678,4.1678,0,0,1,126.2242,29.7667Zm2.74,4.4668a2.5228,2.5228,0,0,0-3.6286.0133,2.9591,2.9591,0,0,0-.7382,2.1273,2.994,2.994,0,0,0,.7382,2.1518,2.4968,2.4968,0,0,0,3.6286-.0122,3.0046,3.0046,0,0,0,.7388-2.14A2.9548,2.9548,0,0,0,128.9641,34.2335Z"/><path class="cls-2" d="M151.9251,37.375h-9.2846a2.5815,2.5815,0,0,0,.6382,1.7141,1.9483,1.9483,0,0,0,1.4392.5632,1.8034,1.8034,0,0,0,1.7518-1.1009h5.23a6.1088,6.1088,0,0,1-1.2636,2.59,6.503,6.503,0,0,1-2.365,1.79,7.5,7.5,0,0,1-3.1532.6509,7.6087,7.6087,0,0,1-3.6908-.8764,6.2783,6.2783,0,0,1-2.5278-2.5028,7.6881,7.6881,0,0,1-.9137-3.8281,7.7123,7.7123,0,0,1,.9009-3.8169,6.226,6.226,0,0,1,2.515-2.4894,8.3481,8.3481,0,0,1,7.3956-.0256,6.1331,6.1331,0,0,1,2.5022,2.4406,7.4581,7.4581,0,0,1,.9009,3.74A8.9114,8.9114,0,0,1,151.9251,37.375Zm-4.93-2.3772a1.7605,1.7605,0,0,0-.6-1.4142,2.2311,2.2311,0,0,0-1.5019-.5132,2.2029,2.2029,0,0,0-1.4763.4877,2.3758,2.3758,0,0,0-.751,1.44Z"/><path class="cls-2" d="M162.7861,29.9422a4.858,4.858,0,0,1,2.5272-.7009v5.231h-1.3764a3.7452,3.7452,0,0,0-2.3772.6255,2.6521,2.6521,0,0,0-.776,2.1773v6.1308h-4.905V29.3668h4.905V31.844A6.3817,6.3817,0,0,1,162.7861,29.9422Z"/><path class="cls-2" d="M193.6328,25.5541V43.6323h-5.0261V33.6575l-3.41,9.9748H180.991L177.5546,33.58V43.6323h-5.0261V25.5541h6.0773l4.5389,11.7448,4.4364-11.7448Z"/><path class="cls-2" d="M212.0957,37.4525h-9.5138a2.6446,2.6446,0,0,0,.654,1.7564,1.996,1.996,0,0,0,1.4746.5771,1.8479,1.8479,0,0,0,1.7951-1.128h5.359a6.2589,6.2589,0,0,1-1.2948,2.6533,6.6615,6.6615,0,0,1-2.4234,1.8338,7.6836,7.6836,0,0,1-3.231.667,7.7957,7.7957,0,0,1-3.7819-.8981,6.4333,6.4333,0,0,1-2.59-2.5645,7.8783,7.8783,0,0,1-.9362-3.9225,7.9031,7.9031,0,0,1,.9231-3.9112,6.3793,6.3793,0,0,1,2.5771-2.5509,8.5538,8.5538,0,0,1,7.5781-.0261,6.2842,6.2842,0,0,1,2.564,2.5008,7.6422,7.6422,0,0,1,.9231,3.8326A9.1369,9.1369,0,0,1,212.0957,37.4525Zm-5.0517-2.4359a1.804,1.804,0,0,0-.6152-1.449,2.2861,2.2861,0,0,0-1.539-.5259,2.2577,2.2577,0,0,0-1.5128.5,2.4343,2.4343,0,0,0-.7694,1.4752Z"/><path class="cls-2" d="M223.2252,29.8363a4.9774,4.9774,0,0,1,2.59-.7182v5.36h-1.41a3.8376,3.8376,0,0,0-2.4359.6409,2.7176,2.7176,0,0,0-.7951,2.231v6.2822h-5.0261V29.2467h5.0261V31.785A6.5377,6.5377,0,0,1,223.2252,29.8363Z"/><path class="cls-2" d="M229.6355,32.5283a6.3609,6.3609,0,0,1,2.577-2.5634,7.8011,7.8011,0,0,1,3.7825-.8981,7.1442,7.1442,0,0,1,4.6158,1.5,6.8912,6.8912,0,0,1,2.4108,4.1923h-5.3339a1.7872,1.7872,0,0,0-1.7951-1.41,1.7411,1.7411,0,0,0-1.5.782,3.978,3.978,0,0,0-.5509,2.296,4.0332,4.0332,0,0,0,.5509,2.3073,1.7326,1.7326,0,0,0,1.5.7956,1.76,1.76,0,0,0,1.7951-1.4115h5.3339a6.93,6.93,0,0,1-2.4108,4.1809,7.1073,7.1073,0,0,1-4.6158,1.5128,7.8,7.8,0,0,1-3.7825-.8981,6.3562,6.3562,0,0,1-2.577-2.5645,7.9712,7.9712,0,0,1-.9232-3.9225A7.9229,7.9229,0,0,1,229.6355,32.5283Z"/><path class="cls-2" d="M247.009,32.5283a6.135,6.135,0,0,1,2.2049-2.5634,5.6429,5.6429,0,0,1,3.116-.8981,5.2675,5.2675,0,0,1,2.564.59,4.27,4.27,0,0,1,1.667,1.59v-2h5.0261V43.6323h-5.0261v-2a4.253,4.253,0,0,1-1.6795,1.59,5.2872,5.2872,0,0,1-2.5515.59,5.6421,5.6421,0,0,1-3.116-.8981,6.1194,6.1194,0,0,1-2.2049-2.577,8.9184,8.9184,0,0,1-.8081-3.91A8.8428,8.8428,0,0,1,247.009,32.5283Zm8.7955,1.7188a2.6006,2.6006,0,0,0-3.7312-.0136,3.059,3.059,0,0,0-.7433,2.1935,3.1107,3.1107,0,0,0,.7433,2.1923,2.4354,2.4354,0,0,0,1.8719.807,2.4658,2.4658,0,0,0,1.8593-.7945,3.07,3.07,0,0,0,.7564-2.2048A3.0347,3.0347,0,0,0,255.8045,34.2471Z"/><path class="cls-2" d="M266.37,32.5283a6.1027,6.1027,0,0,1,2.2179-2.5634,5.705,5.705,0,0,1,3.1286-.8981,5.2077,5.2077,0,0,1,2.4746.5771,4.3506,4.3506,0,0,1,1.7052,1.5766V24.656h5.0517V43.6323h-5.0517v-2a4.2719,4.2719,0,0,1-1.667,1.59,5.21,5.21,0,0,1-2.5384.59,5.6422,5.6422,0,0,1-3.1161-.8981,6.12,6.12,0,0,1-2.2048-2.577,8.917,8.917,0,0,1-.8082-3.91A8.8414,8.8414,0,0,1,266.37,32.5283Zm8.7955,1.7188a2.6007,2.6007,0,0,0-3.7313-.0136,3.0594,3.0594,0,0,0-.7433,2.1935,3.1111,3.1111,0,0,0,.7433,2.1923,2.4354,2.4354,0,0,0,1.8719.807,2.4658,2.4658,0,0,0,1.8594-.7945,3.07,3.07,0,0,0,.7564-2.2048A3.0347,3.0347,0,0,0,275.165,34.2471Z"/><path class="cls-2" d="M288.5762,42.914a6.6065,6.6065,0,0,1-2.68-2.5645,7.635,7.635,0,0,1-.9743-3.9225,7.5067,7.5067,0,0,1,.9874-3.8987,6.6927,6.6927,0,0,1,2.6926-2.5634,8.7413,8.7413,0,0,1,7.7187,0,6.7,6.7,0,0,1,2.6926,2.5634,8.2166,8.2166,0,0,1,0,7.8087,6.6531,6.6531,0,0,1-2.7057,2.577,8.7682,8.7682,0,0,1-7.7312,0Zm5.6157-4.2435a3.2393,3.2393,0,0,0,.7052-2.2435,3.19,3.19,0,0,0-.7052-2.2311,2.2559,2.2559,0,0,0-1.7307-.77,2.217,2.217,0,0,0-1.7183.77,3.2288,3.2288,0,0,0-.692,2.2311,3.3524,3.3524,0,0,0,.6664,2.256,2.1677,2.1677,0,0,0,1.7183.77A2.2684,2.2684,0,0,0,294.1919,38.6705Z"/><path class="cls-2" d="M51.6716,19.0272H17.4046a5.0383,5.0383,0,0,0-5.0081,4.4876l-.2158,1.9627a5.0384,5.0384,0,0,0,2.489,4.914l15.7265,9.08a5.5079,5.5079,0,0,1,0,9.54L10.393,60.56a5.0384,5.0384,0,0,0-2.4891,3.8127h0a5.04,5.04,0,0,0,.2692,2.2614l1.8187,5.0382A5.0384,5.0384,0,0,0,14.7308,75H54.3454a5.0382,5.0382,0,0,0,4.7389-3.3275l1.8188-5.0383a5.0383,5.0383,0,0,0,.2692-2.2614L56.68,23.5148A5.0383,5.0383,0,0,0,51.6716,19.0272Z"/><path class="cls-2" d="M44.7808,15.3032a2.3193,2.3193,0,0,1-1.6917-2.2892v-.0208a8.3582,8.3582,0,0,0-5.1706-7.8408A8.5976,8.5976,0,0,0,25.9871,13.05v.0709a2.2054,2.2054,0,0,1-1.3155,2.061,2.2633,2.2633,0,0,1-3.1831-2.061V13.05A12.9165,12.9165,0,0,1,30.3044.6706,13.0959,13.0959,0,0,1,47.5877,13.05v.0709A2.2529,2.2529,0,0,1,44.7808,15.3032Z"/><path class="cls-2" d="M26.8773,42.6876,12.0521,34.1283a1.1631,1.1631,0,0,0-1.682,1.3836l2.8567,8.3529a1.1625,1.1625,0,0,1,0,.7528L10.37,52.9705a1.1631,1.1631,0,0,0,1.682,1.3836l14.8252-8.5593A1.7939,1.7939,0,0,0,26.8773,42.6876Z"/><path class="cls-2" d="M5.46,40.1963H2.6785A1.6483,1.6483,0,0,1,1.03,38.548h0A1.6484,1.6484,0,0,1,2.6785,36.9H5.46A1.6484,1.6484,0,0,1,7.1085,38.548h0A1.6484,1.6484,0,0,1,5.46,40.1963Z"/><path class="cls-2" d="M7.4691,45.89H4.6875a1.6484,1.6484,0,0,1-1.6483-1.6484h0a1.6484,1.6484,0,0,1,1.6483-1.6484H7.4691a1.6483,1.6483,0,0,1,1.6483,1.6484h0A1.6484,1.6484,0,0,1,7.4691,45.89Z"/><path class="cls-2" d="M4.43,51.5828H1.6484A1.6484,1.6484,0,0,1,0,49.9345H0a1.6484,1.6484,0,0,1,1.6484-1.6484H4.43a1.6484,1.6484,0,0,1,1.6483,1.6484h0A1.6483,1.6483,0,0,1,4.43,51.5828Z"/></g></g></svg>