<svg xmlns="http://www.w3.org/2000/svg" viewBox="0 0 20 20"><defs><style>.cls-1{fill:#f9f9f9;}</style></defs><title>instagram</title><g id="Capa_2" data-name="Capa 2"><g id="Capa_1-2" data-name="Capa 1"><path class="cls-1" d="M10,7.6188A2.3812,2.3812,0,1,0,12.3821,10,2.3812,2.3812,0,0,0,10,7.6188Zm5.5674-1.83A2.41,2.41,0,0,0,14.21,4.4308,15.8424,15.8424,0,0,0,10,4.1437a15.7258,15.7258,0,0,0-4.21.2871A2.4107,2.4107,0,0,0,4.4321,5.7884,15.8764,15.8764,0,0,0,4.1451,10a15.8137,15.8137,0,0,0,.2888,4.2116,2.4109,2.4109,0,0,0,1.3576,1.3575,15.845,15.845,0,0,0,4.21.2871,15.7169,15.7169,0,0,0,4.21-.2871,2.4106,2.4106,0,0,0,1.3576-1.3575A15.7438,15.7438,0,0,0,15.8562,10a15.753,15.753,0,0,0-.287-4.2112ZM10,13.6607a3.6563,3.6563,0,1,1,.0089,0ZM13.8116,7.04a.8545.8545,0,1,1,.854-.8549v0a.8528.8528,0,0,1-.8491.8563h-.0031ZM17.8571,0H2.1429A2.1429,2.1429,0,0,0,0,2.1429V17.8571A2.1429,2.1429,0,0,0,2.1429,20H17.8571A2.1429,2.1429,0,0,0,20,17.8571V2.1429A2.1429,2.1429,0,0,0,17.8571,0Zm-.7642,12.9464a4.2476,4.2476,0,0,1-1.1541,2.9911,4.2494,4.2494,0,0,1-2.991,1.154c-1.1791.0665-4.7139.0665-5.8929,0a4.2558,4.2558,0,0,1-2.9911-1.154A4.235,4.235,0,0,1,2.91,12.9464c-.0665-1.1794-.0665-4.7147,0-5.8928a4.234,4.234,0,0,1,1.154-2.9911A4.2579,4.2579,0,0,1,7.0549,2.9116c1.179-.0665,4.7138-.0665,5.8929,0a4.25,4.25,0,0,1,2.991,1.154,4.25,4.25,0,0,1,1.1541,2.9933C17.1594,8.2339,17.1594,11.7661,17.0929,12.9464Z"/></g></g></svg>