<svg xmlns="http://www.w3.org/2000/svg" viewBox="0 0 20 20"><defs><style>.cls-1{fill:#f9f9f9;}</style></defs><title>whatsapp</title><g id="Capa_2" data-name="Capa 2"><g id="Capa_1-2" data-name="Capa 1"><path class="cls-1" d="M16.9865,2.935A9.8821,9.8821,0,0,0,9.96,0,10.0013,10.0013,0,0,0,1.5269,15.3126l.23.38-1,3.6821,3.7566-.9919.3787.2176A9.795,9.795,0,0,0,9.9459,20H9.96A10.0708,10.0708,0,0,0,20,10,10.1186,10.1186,0,0,0,16.9865,2.935ZM15.8377,14.2935A3.1314,3.1314,0,0,1,13.8245,15.72c-.9594.136-1.6892.068-3.581-.7609A13.4665,13.4665,0,0,1,5.1349,10.435,5.9024,5.9024,0,0,1,3.9188,7.31a3.3435,3.3435,0,0,1,1.0406-2.5,1.1009,1.1009,0,0,1,.7971-.38c.2026,0,.4058,0,.5813.0136.1756,0,.4322-.068.6625.5028.2567.5978.8512,2.0925.9185,2.2282a.5282.5282,0,0,1,.0271.53C7.3784,8.8587,6.77,8.8047,7.0676,9.348a8.2006,8.2006,0,0,0,4.0673,3.56c.2976.1632.487.136.6487-.068.1761-.2036.7436-.883.9462-1.1819.1894-.2988.3919-.2444.6618-.1356.2706.0812,1.7572.815,2.0548.9646.31.1493.4995.2309.5807.3529A2.6645,2.6645,0,0,1,15.8377,14.2935Z"/></g></g></svg>