<svg xmlns="http://www.w3.org/2000/svg" viewBox="0 0 80 80"><defs><style>.cls-1{fill:#fff;}</style></defs><title>alert_eliminar</title><g id="Capa_2" data-name="Capa 2"><g id="Capa_1-2" data-name="Capa 1"><path class="cls-1" d="M40,4A36,36,0,1,1,4,40,36.0409,36.0409,0,0,1,40,4m0-4A40,40,0,1,0,80,40,40,40,0,0,0,40,0Z"/><path class="cls-1" d="M27.5,54.2188A3.206,3.206,0,0,0,30.625,57.5h18.75A3.206,3.206,0,0,0,52.5,54.2188h0V31.25h-25Zm17.7083-17.5a1.0429,1.0429,0,1,1,2.0834,0V52.0313a1.0429,1.0429,0,1,1-2.0834,0Zm-6.25,0a1.0429,1.0429,0,1,1,2.0834,0V52.0313a1.0429,1.0429,0,1,1-2.0834,0Zm-6.25,0a1.0429,1.0429,0,1,1,2.0834,0V52.0313a1.0429,1.0429,0,1,1-2.0834,0ZM53.5417,24.6875H45.7292l-.612-1.2783a1.5567,1.5567,0,0,0-1.4-.9092H36.276a1.539,1.539,0,0,0-1.3932.9092l-.612,1.2783H26.4583a1.0686,1.0686,0,0,0-1.0416,1.0938v2.1875a1.0686,1.0686,0,0,0,1.0416,1.0937H53.5417a1.0686,1.0686,0,0,0,1.0416-1.0937V25.7813A1.0686,1.0686,0,0,0,53.5417,24.6875Z"/></g></g></svg>